<svg width="64" height="64" viewBox="0 0 64 64" fill="none" xmlns="http://www.w3.org/2000/svg">
  <rect width="64" height="64" rx="14" fill="#0B0B0C"/>
  <path d="M16 38v-3.2c0-.9.4-1.7 1.1-2.2l2.3-1.7 2.6-6.2c.5-1.1 1.6-1.9 2.8-1.9h10.4c1.2 0 2.3.8 2.8 1.9l2.6 6.2 2.3 1.7c.7.5 1.1 1.3 1.1 2.2V38a2 2 0 0 1-2 2h-1.5a3.5 3.5 0 0 1-7 0H26.5a3.5 3.5 0 0 1-7 0H18a2 2 0 0 1-2-2Z" stroke="#FAFAFA" stroke-width="2.4" stroke-linejoin="round"/>
  <path d="M21.5 31.5h21" stroke="#FAFAFA" stroke-width="2.4" stroke-linecap="round"/>
  <circle cx="48" cy="18" r="4" fill="#2D5BFF"/>
</svg>
